<svg xmlns="http://www.w3.org/2000/svg" width="15" height="17.5" viewBox="0 0 15 17.5"><g transform="translate(-4)"><path d="M10.654,22.591a.312.312,0,1,0,.442.442l3.75-3.75a.309.309,0,0,0,.068-.1.313.313,0,0,0,0-.239.319.319,0,0,0-.068-.1L11.1,15.091a.312.312,0,1,0-.442.442l3.217,3.217H4.313a.313.313,0,0,0,0,.625h9.558Z" transform="translate(0 -10.312)"/><path d="M24.875,0H13.313A.312.312,0,0,0,13,.313V6.875a.313.313,0,0,0,.625,0V.625H24.563v16.25H13.625v-6.25a.313.313,0,0,0-.625,0v6.563a.312.312,0,0,0,.313.313H24.875a.312.312,0,0,0,.313-.312V.313A.312.312,0,0,0,24.875,0Z" transform="translate(-6.188)"/></g></svg>